<?xml version="1.0" standalone="no"?>
<!DOCTYPE svg PUBLIC "-//W3C//DTD SVG 20010904//EN"
 "http://www.w3.org/TR/2001/REC-SVG-20010904/DTD/svg10.dtd">
<svg version="1.0" xmlns="http://www.w3.org/2000/svg"
 width="260.000000pt" height="260.000000pt" viewBox="0 0 260.000000 260.000000"
 preserveAspectRatio="xMidYMid meet">
<metadata>
Created by potrace 1.11, written by Peter Selinger 2001-2013
</metadata>
<g transform="translate(0.000000,260.000000) scale(0.100000,-0.100000)"
fill="#000000" stroke="none">
<path d="M759 2257 c-199 -113 -354 -280 -453 -487 -42 -86 -43 -97 -17 -142
11 -18 23 -53 26 -78 7 -46 33 -100 48 -100 4 0 6 -4 3 -8 -3 -5 11 -9 30 -10
48 -2 50 -5 52 -54 1 -24 7 -45 12 -46 6 -2 8 -8 4 -13 -3 -5 -1 -9 5 -9 6 0
7 -7 4 -17 -4 -11 -3 -14 5 -9 8 5 12 0 12 -14 0 -12 5 -18 10 -15 6 3 10 -3
10 -13 0 -11 18 -35 40 -53 22 -18 40 -39 40 -46 0 -6 9 -18 20 -26 11 -8 17
-17 13 -20 -3 -4 1 -7 10 -7 16 0 43 -37 34 -46 -3 -3 -1 -21 3 -40 5 -23 4
-34 -4 -35 -6 0 -2 -4 9 -9 17 -7 17 -9 3 -9 -10 -1 -18 -5 -18 -10 0 -6 9 -8
21 -6 17 4 19 2 9 -10 -11 -14 -7 -19 13 -16 4 0 7 -6 7 -15 0 -9 -5 -12 -12
-8 -9 5 -10 4 -3 -4 6 -6 35 -14 65 -18 74 -8 92 -27 97 -101 3 -32 11 -72 19
-90 8 -17 14 -41 14 -54 0 -20 8 -52 28 -109 3 -8 5 -18 4 -21 -1 -4 10 -17
23 -29 18 -17 25 -19 25 -9 1 10 4 9 14 -4 8 -10 12 -28 9 -40 -3 -16 -2 -18
5 -9 7 11 10 10 16 -3 3 -9 3 -22 -1 -28 -4 -8 -1 -7 9 1 8 7 23 9 32 6 36
-14 59 54 31 92 -19 25 -19 55 0 80 8 10 15 38 15 62 0 46 18 95 48 128 21 25
79 57 90 50 4 -2 13 2 20 10 7 8 8 14 2 14 -5 0 -10 5 -10 11 0 5 4 8 8 5 5
-3 9 1 9 9 0 8 -4 12 -9 9 -5 -3 -6 9 -3 26 3 19 2 29 -4 26 -5 -4 -12 -2 -16
4 -3 5 -1 10 4 10 8 0 7 7 -1 19 -7 11 -15 18 -20 15 -4 -3 -10 7 -14 21 -3
14 -12 25 -20 25 -8 0 -14 7 -14 16 0 10 -5 14 -16 10 -8 -3 -12 -2 -9 4 3 6
1 10 -6 10 -7 0 -10 3 -6 6 8 8 -18 34 -33 34 -6 0 -8 5 -5 10 3 6 -2 10 -12
10 -15 0 -16 2 -3 10 13 8 13 10 -2 10 -10 0 -22 9 -28 21 -7 12 -18 18 -26
15 -13 -5 -19 6 -15 27 1 5 -3 6 -9 2 -5 -3 -10 -1 -10 4 0 6 -9 11 -20 11
-11 0 -20 6 -20 13 0 8 -4 7 -10 -3 -8 -13 -10 -13 -10 1 0 12 -7 15 -25 11
-14 -2 -32 1 -40 8 -12 10 -16 9 -21 -5 -5 -13 -9 -14 -15 -3 -6 10 -9 8 -9
-7 0 -17 -2 -17 -10 -5 -6 10 -10 11 -10 3 0 -7 -11 -13 -25 -13 -14 0 -25 -4
-25 -9 0 -5 -7 -11 -14 -14 -11 -4 -13 -1 -9 10 4 11 2 14 -5 9 -7 -4 -12 -2
-12 4 0 7 -16 27 -34 45 -22 21 -30 36 -23 39 7 2 4 5 -5 5 -19 1 -25 21 -7
21 6 0 9 7 6 15 -4 8 -1 17 5 21 7 5 8 2 3 -6 -5 -9 -4 -11 4 -6 6 4 11 13 10
19 -4 30 2 48 12 41 8 -5 10 3 7 23 -4 30 4 36 29 20 15 -9 27 9 17 26 -5 8
-2 8 9 -2 9 -7 17 -10 17 -7 0 16 31 -25 33 -42 0 -10 7 -19 14 -19 7 0 9 5 5
12 -4 6 1 3 10 -7 16 -18 17 -18 32 4 9 12 16 18 16 12 0 -5 -5 -15 -12 -22
-9 -9 -9 -12 -1 -12 7 0 15 9 18 20 4 11 10 18 15 15 5 -3 7 13 5 35 -3 25 -1
38 5 35 6 -3 7 1 4 9 -4 11 0 16 15 16 12 0 21 5 21 11 0 7 10 9 24 7 16 -3
27 0 30 9 3 8 10 12 15 9 15 -10 41 5 41 23 0 14 2 14 10 1 9 -13 14 -7 11 13
0 4 3 7 9 7 15 0 46 72 45 108 0 17 3 32 8 32 5 0 4 6 -2 13 -6 8 -8 17 -4 20
3 4 0 14 -8 24 -11 14 -11 15 0 9 9 -6 8 0 -4 17 -9 15 -14 31 -10 37 3 5 1
10 -5 10 -6 0 -9 4 -5 9 3 5 -2 16 -10 24 -8 9 -15 22 -15 29 0 8 -9 20 -20
28 -11 8 -20 22 -20 32 0 10 -3 17 -7 17 -22 -4 -31 3 -29 19 3 14 13 17 66
16 41 -1 65 -6 71 -15 7 -12 9 -12 9 0 0 11 4 10 16 -5 15 -18 15 -18 10 0 -6
17 -4 17 10 5 22 -18 46 -18 62 1 8 8 11 10 8 4 -3 -6 1 -11 8 -11 8 0 12 7 8
15 -4 11 -1 13 7 7 10 -6 11 -3 2 14 -9 16 -9 21 1 21 10 0 10 2 -1 9 -8 5
-10 14 -6 22 6 9 3 11 -8 6 -12 -4 -17 -1 -18 11 0 9 -3 12 -5 5 -3 -7 -12 -9
-20 -6 -7 3 -11 10 -7 16 4 6 -2 8 -15 5 -12 -4 -22 -2 -22 4 0 5 -4 6 -10 3
-5 -3 -16 -3 -22 2 -19 11 -39 13 -32 2 3 -5 0 -9 -5 -9 -6 0 -11 8 -11 18 0
14 -2 15 -10 2 -6 -9 -10 -11 -10 -3 0 7 -6 10 -14 7 -9 -3 -24 7 -37 25 -16
22 -25 28 -31 19 -6 -10 -10 -10 -18 2 -6 10 -10 11 -10 3 0 -7 -8 -13 -17
-13 -14 0 -15 -2 -5 -9 11 -7 11 -9 -2 -14 -9 -4 -15 -12 -14 -19 2 -7 -3 -12
-11 -10 -12 3 -12 0 -1 -12 7 -9 10 -17 6 -17 -3 -1 -9 -2 -13 -3 -5 -1 -14
-5 -22 -10 -10 -6 -12 -5 -7 2 4 7 1 12 -8 12 -9 0 -16 5 -16 11 0 5 -4 8 -9
4 -5 -3 -12 -1 -16 5 -4 6 -11 8 -16 5 -5 -4 -12 1 -15 9 -3 9 -10 13 -15 10
-5 -3 -9 2 -9 10 0 8 5 18 12 22 7 5 8 3 3 -6 -6 -10 -4 -11 6 -4 18 11 39 14
39 5 0 -4 9 -7 21 -8 14 -1 19 3 15 12 -2 7 2 16 10 19 10 4 13 2 8 -7 -4 -6
-3 -9 1 -4 16 14 15 48 0 63 -8 9 -12 20 -9 26 4 6 2 8 -4 4 -6 -3 -13 -2 -17
4 -9 15 -14 13 -96 -33z m-218 -1044 c13 -16 12 -17 -3 -4 -10 7 -18 15 -18
17 0 8 8 3 21 -13z m316 -15 c-3 -8 -6 -5 -6 6 -1 11 2 17 5 13 3 -3 4 -12 1
-19z"/>
<path d="M1843 2215 c-6 -7 -9 -15 -6 -19 3 -3 -4 -3 -16 -1 -16 3 -21 0 -19
-13 2 -9 -3 -17 -9 -18 -26 -3 -27 -4 -15 -16 7 -7 12 -20 12 -31 0 -10 5 -15
10 -12 6 3 10 -1 10 -9 0 -10 6 -13 15 -10 8 4 23 0 32 -7 12 -10 15 -10 9 -1
-4 7 -1 12 8 12 9 0 16 4 16 10 0 5 7 6 17 3 10 -4 14 -2 10 4 -4 6 0 14 9 17
10 4 13 2 9 -7 -4 -6 0 -4 8 5 11 14 16 15 27 5 10 -9 11 -9 5 2 -4 7 -2 16 5
21 7 5 -5 19 -38 44 -52 38 -72 44 -72 24 0 -10 -2 -10 -8 -2 -5 9 -10 8 -19
-1z"/>
<path d="M1020 2193 c0 -6 8 -17 18 -24 16 -13 16 -13 2 6 -8 11 -16 22 -17
24 -2 2 -3 0 -3 -6z"/>
<path d="M1585 2183 c-8 -8 -15 -10 -15 -4 0 6 -4 11 -8 11 -11 0 -9 -31 3
-49 6 -11 4 -13 -7 -9 -9 4 -15 0 -15 -8 0 -8 7 -14 16 -14 11 0 10 -3 -5 -15
-12 -10 -14 -13 -3 -10 18 7 43 -37 29 -51 -5 -5 -2 -15 6 -22 8 -7 14 -10 14
-7 0 4 7 -1 16 -9 18 -18 39 -22 28 -5 -5 8 -1 8 14 0 30 -16 39 -14 16 4 -13
11 -14 14 -4 13 8 -2 14 3 13 10 -2 6 1 12 6 12 4 0 8 18 7 40 -1 22 -5 40 -9
40 -5 0 -5 5 -2 11 4 6 -1 17 -11 25 -11 9 -13 13 -4 9 10 -4 9 -2 -2 8 -10 8
-15 17 -11 20 3 4 0 7 -8 8 -8 0 -22 2 -32 4 -9 2 -24 -3 -32 -12z"/>
<path d="M1490 2100 c0 -7 -6 -10 -14 -7 -8 3 -13 -1 -12 -11 0 -10 -5 -16
-14 -14 -12 3 -12 1 -3 -9 9 -9 10 -16 1 -26 -9 -11 -7 -15 10 -20 13 -3 19
-10 15 -17 -4 -6 2 -4 12 4 10 8 16 10 12 4 -4 -7 0 -14 8 -18 8 -3 14 -2 14
2 -3 19 2 25 11 12 8 -13 10 -12 10 3 0 12 4 16 13 11 7 -5 6 0 -3 11 -8 10
-10 16 -4 12 7 -4 14 2 17 14 5 17 2 20 -14 16 -10 -3 -17 -2 -14 2 2 5 -3 17
-11 27 -9 10 -12 12 -8 4 7 -13 5 -13 -9 -1 -13 10 -17 10 -17 1z"/>
<path d="M1764 2038 c-3 -5 -10 -6 -15 -3 -5 3 -6 0 -3 -8 3 -8 1 -18 -5 -21
-6 -4 -8 -13 -4 -21 3 -10 1 -13 -9 -10 -8 3 -26 -3 -39 -14 -13 -11 -19 -20
-14 -21 15 0 7 -107 -10 -140 -8 -16 -31 -36 -52 -47 -38 -19 -62 -52 -28 -39
15 5 16 4 6 -8 -10 -11 -8 -17 6 -25 11 -6 13 -11 5 -11 -7 0 -10 -5 -7 -10 4
-6 10 -8 15 -5 4 3 13 -2 20 -10 7 -8 10 -15 6 -15 -3 0 4 -11 16 -25 16 -19
24 -22 35 -13 11 9 12 7 6 -8 -6 -17 -5 -17 10 -5 10 8 20 11 24 7 3 -3 1 -6
-5 -6 -7 0 -12 -4 -12 -9 0 -6 12 -6 30 -1 18 5 28 5 25 -1 -3 -5 1 -6 10 -3
10 4 16 17 15 33 -4 49 0 62 25 86 19 20 34 25 73 25 85 0 112 -10 142 -52 18
-24 30 -34 33 -26 4 9 6 9 6 1 1 -6 10 -9 24 -6 18 4 19 3 7 -6 -12 -9 -11
-11 8 -11 12 0 21 -5 20 -12 -2 -7 2 -13 7 -13 23 -3 45 -18 39 -26 -5 -9 10
-13 30 -10 5 1 3 -6 -5 -15 -9 -12 -9 -15 -1 -10 6 4 12 3 12 -2 0 -5 7 -9 15
-9 8 0 12 4 9 9 -10 15 9 8 23 -9 8 -10 12 -13 9 -6 -4 6 4 19 16 27 12 9 18
16 13 16 -6 0 -3 5 5 10 11 7 12 10 2 10 -9 0 -11 7 -7 20 4 13 1 22 -9 26 -9
3 -16 14 -16 23 0 14 2 14 10 1 8 -12 10 -12 10 -1 0 9 8 12 26 8 23 -4 25 -2
19 22 -10 45 -73 171 -121 242 l-46 69 -61 0 c-45 0 -74 6 -102 21 -53 29 -92
33 -104 11 -10 -16 -10 -16 -11 1 0 15 -3 16 -20 7 -12 -7 -20 -7 -20 -1 0 5
-9 8 -19 6 -13 -2 -18 1 -15 9 5 14 -44 17 -52 4z"/>
<path d="M1610 1640 c0 -5 5 -10 11 -10 5 0 7 5 4 10 -3 6 -8 10 -11 10 -2 0
-4 -4 -4 -10z"/>
<path d="M1960 1485 c0 -6 -36 -10 -88 -10 -57 0 -92 -4 -100 -12 -8 -7 -18
-11 -23 -8 -5 4 -6 -1 -3 -9 3 -9 2 -16 -3 -16 -6 0 -10 -23 -9 -51 1 -35 -3
-53 -12 -57 -11 -4 -11 -6 0 -13 10 -7 9 -9 -4 -9 -9 0 -20 -4 -23 -10 -3 -5
0 -7 9 -4 16 6 17 -19 1 -33 -4 -5 -4 -1 0 7 8 13 7 13 -8 1 -20 -16 -22 -22
-6 -18 18 4 19 -32 1 -44 -15 -10 -15 -10 1 -5 14 4 16 1 13 -20 -4 -20 -2
-24 11 -20 13 5 14 4 3 -9 -7 -8 -8 -15 -2 -15 5 0 13 -7 16 -16 5 -12 3 -14
-7 -8 -11 8 7 -9 39 -35 7 -6 16 -7 20 -3 5 4 2 -2 -6 -12 -10 -13 -10 -17 -2
-12 7 4 12 2 12 -5 0 -9 3 -9 14 0 11 9 16 9 22 0 5 -8 3 -9 -6 -4 -8 5 -11 4
-6 -3 4 -6 14 -8 23 -5 12 5 14 3 8 -8 -8 -12 -6 -12 8 0 12 9 17 10 17 2 0
-9 5 -9 21 0 15 8 19 8 15 0 -4 -6 0 -11 10 -11 9 0 23 -8 30 -17 13 -17 14
-17 8 2 -5 19 -5 19 9 3 8 -10 17 -15 20 -11 4 3 7 -1 7 -10 0 -9 5 -19 12
-23 7 -4 8 -3 4 4 -4 7 -2 12 3 12 6 0 11 -7 11 -15 0 -9 6 -12 18 -8 9 3 14
3 10 -2 -4 -4 -1 -13 6 -21 8 -7 13 -27 12 -43 -1 -16 2 -27 6 -25 4 3 11 -2
15 -11 3 -10 0 -21 -8 -26 -11 -7 -10 -9 6 -10 11 0 15 -3 8 -5 -7 -3 -9 -12
-6 -21 4 -10 2 -14 -4 -10 -5 3 -10 0 -10 -8 0 -8 5 -15 11 -15 8 0 8 -2 0 -8
-13 -9 -27 -85 -14 -77 13 8 -1 -28 -14 -37 -7 -5 -7 -8 -1 -8 12 0 11 -91 0
-111 -18 -33 81 72 125 131 143 192 220 426 220 665 0 62 -3 76 -19 84 -10 6
-21 7 -25 4 -3 -3 -6 1 -6 11 0 9 -5 14 -10 11 -6 -4 -18 -1 -27 7 -14 11 -16
11 -8 -2 8 -13 6 -13 -7 -2 -9 7 -30 14 -47 14 -19 1 -28 5 -24 12 4 6 0 5 -9
-2 -13 -10 -17 -10 -21 0 -4 10 -8 10 -16 -2 -10 -13 -11 -13 -11 0 0 12 -13
15 -58 14 -31 0 -60 4 -64 10 -5 7 -8 7 -8 -2 0 -10 -3 -10 -15 1 -8 9 -23 14
-32 13 -10 -2 -21 2 -25 8 -5 6 -8 7 -8 1z"/>
</g>
</svg>
